<svg preserveAspectRatio="none" width="100%" height="100%" overflow="visible" style="display: block;" viewBox="0 0 146 32" fill="none" xmlns="http://www.w3.org/2000/svg">
<g id="brand-logo.svg">
<path id="Vector" d="M85.6321 21V25.6396C85.6321 25.7854 85.6321 25.915 85.6379 26.0445C85.6494 26.2874 85.7299 26.3684 86 26.3361V26.9595C85.8735 26.9838 85.7299 27 85.5862 27C85.2528 27 85.0287 26.83 85.0057 26.2793C85 26.1174 85 25.9231 85 25.664V21H85.6321Z" fill="var(--fill-0, white)"/>
<path id="Vector_2" d="M79.2718 25.8998L79.2049 25.3488L79.0245 25.7567C78.784 25.9356 78.4766 26 78.1425 26C77.5145 26 77 25.6136 77 24.9052C77 24.0608 77.6281 23.6029 78.971 23.6029H79.1982V23.5098C79.1982 23.3667 79.1982 23.2379 79.1849 23.0948C79.1648 22.7871 78.9844 22.5724 78.5635 22.5724C78.1359 22.5724 77.9154 22.8301 77.8753 23.3023H77.1403C77.1871 22.4723 77.7684 22 78.5769 22C79.4923 22 79.8531 22.415 79.9132 23.059C79.9265 23.2165 79.9332 23.4168 79.9332 23.5957V24.9338C79.9332 25.22 79.9466 25.4777 80 25.8998H79.2718ZM78.4099 25.4275C78.8709 25.4275 79.1982 25.0913 79.1982 24.4758V24.1252C78.3363 24.0537 77.7751 24.2612 77.7751 24.8408C77.7751 25.2415 78.0223 25.4275 78.4099 25.4275Z" fill="var(--fill-0, white)"/>
<path id="Vector_3" d="M72.2778 22.5362V24.6295C72.2778 24.7651 72.2778 24.8555 72.2847 24.9608C72.3125 25.3524 72.4514 25.4352 72.9514 25.3826V25.9549C72.757 25.985 72.5764 26 72.3889 26C71.8124 26 71.5625 25.7666 71.5277 25.2394C71.5209 25.1039 71.5209 24.9307 71.5209 24.7049V22.5362H71V21.9563H71.5209V21H72.2778V21.9563H73V22.5362H72.2778Z" fill="var(--fill-0, white)"/>
<path id="Vector_4" d="M66.4962 21C66.783 21 67 21.1885 67 21.4399C67 21.6983 66.783 21.8868 66.4962 21.8868C66.2094 21.8868 66 21.6983 66 21.4399C66 21.1885 66.2094 21 66.4962 21ZM66.9225 26H66.0698V22.2919H66.9225V26Z" fill="var(--fill-0, white)"/>
<path id="Vector_5" d="M59.1893 22C60.3409 22 61 22.9311 61 24.1863C61 25.7652 60.0909 26.5263 59.0531 26.5263C58.7197 26.5263 58.3031 26.4292 58.0985 26.2591L57.8333 25.83V28H57V22.1133H57.8333V22.7854L58.1364 22.3238C58.3637 22.1214 58.7803 22 59.1893 22ZM58.9546 25.8785C59.6212 25.8785 60.1212 25.336 60.1212 24.2672C60.1212 23.336 59.7197 22.6477 58.9925 22.6477C58.3712 22.6477 57.8333 23.0688 57.8333 24.2186V24.4372C57.8333 25.4899 58.4243 25.8785 58.9546 25.8785Z" fill="var(--fill-0, white)"/>
<path id="Vector_6" d="M51.2717 25.8998L51.2048 25.3488L51.0245 25.7567C50.7839 25.9356 50.4765 26 50.1425 26C49.5144 26 49 25.6136 49 24.9052C49 24.0608 49.628 23.6029 50.971 23.6029H51.1981V23.5098C51.1981 23.3667 51.1981 23.2379 51.1848 23.0948C51.1648 22.7871 50.9844 22.5724 50.5634 22.5724C50.1358 22.5724 49.9154 22.8301 49.8752 23.3023H49.1403C49.1871 22.4723 49.7683 22 50.5768 22C51.4922 22 51.853 22.415 51.9131 23.059C51.9264 23.2165 51.9331 23.4168 51.9331 23.5957V24.9338C51.9331 25.22 51.9465 25.4777 52 25.8998H51.2717ZM50.4098 25.4275C50.8708 25.4275 51.1981 25.0913 51.1981 24.4758V24.1252C50.3362 24.0537 49.775 24.2612 49.775 24.8408C49.775 25.2415 50.0223 25.4275 50.4098 25.4275Z" fill="var(--fill-0, white)"/>
<path id="Vector_7" d="M44.1022 22C45.1983 22 45.8936 22.5796 46 23.4168H45.092C44.9611 22.8371 44.6093 22.5724 44.0777 22.5724C43.4479 22.5724 42.9488 23.0089 42.9488 23.9607C42.9488 24.9911 43.4397 25.4275 44.045 25.4275C44.5603 25.4275 44.9284 25.1557 45.0593 24.6404H45.9754C45.7709 25.5492 45.0183 26 43.996 26C42.8589 26 42 25.3703 42 24.0179C42 22.7227 42.9653 22 44.1022 22Z" fill="var(--fill-0, white)"/>
<path id="Vector_8" d="M140.656 5C143.315 5 144.618 6.50419 144.861 8.50976H142.88C142.741 7.18942 141.942 6.4039 140.552 6.4039C139.423 6.4039 138.537 6.9053 138.537 7.99166C138.537 9.11144 139.249 9.62954 141.109 10.0474C143.749 10.6323 145 11.7187 145 13.6407C145 15.7299 143.072 17 140.743 17C137.998 17 136.243 15.7465 136 13.4234H137.981C138.293 14.8441 139.336 15.5961 140.743 15.5961C141.994 15.5961 142.985 14.9444 142.985 13.8914C142.985 12.6881 142.255 12.0697 140.309 11.6351C138.032 11.117 136.521 10.2981 136.521 8.29249C136.521 6.25349 138.415 5 140.656 5Z" fill="var(--fill-0, white)"/>
<path id="Vector_9" d="M134 5V12.2102C134 12.6363 134 12.9773 133.967 13.4204C133.801 15.3807 132.486 17 129.491 17C126.497 17 125.183 15.3807 125.033 13.4204C125 12.9773 125 12.6363 125 12.2102V5H126.813V12.2443C126.813 12.6023 126.813 12.9262 126.846 13.1989C126.963 14.6137 127.844 15.5682 129.491 15.5682C131.156 15.5682 132.037 14.6137 132.154 13.1989C132.187 12.9262 132.187 12.6023 132.187 12.2443V5H134Z" fill="var(--fill-0, white)"/>
<path id="Vector_10" d="M121.747 17L118.438 12.1478L115.271 17H113L117.347 10.9478L113.317 5H115.535L118.527 9.69567L121.641 5H123.859L119.635 10.8956L124 17H121.747Z" fill="var(--fill-0, white)"/>
<path id="Vector_11" d="M112 15.4695V17H104V5H111.832V6.51304H105.844V10.2348H111.363V11.7478H105.844V15.4695H112Z" fill="var(--fill-0, white)"/>
<path id="Vector_12" d="M101 17H98.2283L92.8597 7.10435C92.9123 8.47826 92.9298 10.0261 92.9298 11.2609V17H91V5H93.7194L99.1403 14.9652C99.1055 13.6087 99.0881 12.0087 99.0881 10.7739V5H100.983L101 17Z" fill="var(--fill-0, white)"/>
<path id="Vector_13" d="M83.618 13.0348H79.3471L78.0396 17H76L80.3233 5H82.7987L87 17H84.9255L83.618 13.0348ZM79.8526 11.5218H83.1125L81.5261 6.58261L79.8526 11.5218Z" fill="var(--fill-0, white)"/>
<path id="Vector_14" d="M72.6767 17H70.2012L66 5H68.0745L71.4739 15.5391L74.9604 5H77L72.6767 17Z" fill="var(--fill-0, white)"/>
<path id="Vector_15" d="M58.5083 5C61.9984 5 64 7.42341 64 11C64 14.5599 61.9984 17 58.5083 17C55.0016 17 53 14.5599 53 11C53 7.42341 55.0016 5 58.5083 5ZM58.5083 15.5961C60.7248 15.5961 62.0481 13.8579 62.0481 11C62.0481 8.12536 60.7248 6.4039 58.5083 6.4039C56.2752 6.4039 54.9519 8.12536 54.9519 11C54.9519 13.8579 56.2752 15.5961 58.5083 15.5961Z" fill="var(--fill-0, white)"/>
<path id="Vector_16" d="M52 17H49.2281L43.8597 7.10435C43.9123 8.47826 43.9299 10.0261 43.9299 11.2609V17H42V5H44.7194L50.1404 14.9652C50.1053 13.6087 50.0878 12.0087 50.0878 10.7739V5H51.9825L52 17Z" fill="var(--fill-0, white)"/>
<path id="Vector_17" d="M29.6488 19.3423L29.6521 19.3399C27.6641 17.554 27.6673 14.4693 29.6251 12.6833L29.6235 12.6809C31.0851 11.3437 31.9992 9.44079 31.9992 7.32957C31.9992 3.28181 28.6413 0 24.4996 0C20.3579 0 17 3.28181 17 7.32957C17 9.4464 17.9182 11.3533 19.3873 12.6913L19.3865 12.6921C21.3277 14.4749 21.3336 17.542 19.3636 19.3262L19.3652 19.3286C17.9101 20.6659 17.0008 22.564 17.0008 24.6704C17.0008 28.7182 20.3587 32 24.5005 32C28.6421 32 32 28.7182 32 24.6704C32 22.5712 31.0974 20.6788 29.6505 19.3423H29.6488Z" fill="var(--fill-0, white)"/>
<path id="Vector_18" d="M9.22244 14.7978C13.2529 13.8465 15.749 9.80802 14.7978 5.77756C13.8465 1.7471 9.80802 -0.74907 5.77756 0.202206C1.7471 1.15348 -0.74907 5.19198 0.202206 9.22244C1.15348 13.2529 5.19198 15.749 9.22244 14.7978Z" fill="var(--fill-0, white)"/>
</g>
</svg>
