<svg preserveAspectRatio="none" width="100%" height="100%" overflow="visible" style="display: block;" viewBox="0 0 120 26" fill="none" xmlns="http://www.w3.org/2000/svg">
<g id="brand-logo.svg">
<path id="Vector" d="M70.6321 17V20.8664C70.6321 20.9879 70.6321 21.0958 70.6379 21.2037C70.6494 21.4062 70.7299 21.4737 71 21.4467V21.9662C70.8735 21.9865 70.7299 22 70.5862 22C70.2528 22 70.0287 21.8583 70.0057 21.3994C70 21.2645 70 21.1026 70 20.8867V17H70.6321Z" fill="var(--fill-0, white)"/>
<path id="Vector_2" d="M65.2718 20.9248L65.2049 20.5116L65.0245 20.8175C64.784 20.9517 64.4766 21 64.1425 21C63.5145 21 63 20.7102 63 20.1789C63 19.5456 63.6281 19.2022 64.971 19.2022H65.1982V19.1324C65.1982 19.0251 65.1982 18.9284 65.1849 18.8211C65.1648 18.5903 64.9844 18.4293 64.5635 18.4293C64.1359 18.4293 63.9154 18.6225 63.8753 18.9767H63.1403C63.1871 18.3542 63.7684 18 64.5769 18C65.4923 18 65.8531 18.3113 65.9132 18.7943C65.9265 18.9123 65.9332 19.0626 65.9332 19.1968V20.2004C65.9332 20.415 65.9466 20.6083 66 20.9248H65.2718ZM64.4099 20.5706C64.8709 20.5706 65.1982 20.3184 65.1982 19.8569V19.5939C64.3363 19.5403 63.7751 19.6959 63.7751 20.1306C63.7751 20.4312 64.0223 20.5706 64.4099 20.5706Z" fill="var(--fill-0, white)"/>
<path id="Vector_3" d="M59.2778 19.2289V20.9036C59.2778 21.0121 59.2778 21.0844 59.2847 21.1687C59.3125 21.4819 59.4514 21.5482 59.9514 21.506V21.9639C59.757 21.988 59.5764 22 59.3889 22C58.8124 22 58.5625 21.8133 58.5277 21.3915C58.5209 21.2832 58.5209 21.1446 58.5209 20.9639V19.2289H58V18.765H58.5209V18H59.2778V18.765H60V19.2289H59.2778Z" fill="var(--fill-0, white)"/>
<path id="Vector_4" d="M54.4962 17C54.783 17 55 17.1508 55 17.3519C55 17.5587 54.783 17.7095 54.4962 17.7095C54.2094 17.7095 54 17.5587 54 17.3519C54 17.1508 54.2094 17 54.4962 17ZM54.9225 21H54.0698V18.0335H54.9225V21Z" fill="var(--fill-0, white)"/>
<path id="Vector_5" d="M48.642 18C49.5057 18 50 18.776 50 19.8219C50 21.1377 49.3182 21.7719 48.5398 21.7719C48.2897 21.7719 47.9773 21.691 47.8239 21.5493L47.625 21.1917V23H47V18.0944H47.625V18.6545L47.8523 18.2699C48.0228 18.1012 48.3352 18 48.642 18ZM48.4659 21.2321C48.9659 21.2321 49.3409 20.78 49.3409 19.8893C49.3409 19.1133 49.0398 18.5397 48.4943 18.5397C48.0284 18.5397 47.625 18.8907 47.625 19.8489V20.031C47.625 20.9082 48.0682 21.2321 48.4659 21.2321Z" fill="var(--fill-0, white)"/>
<path id="Vector_6" d="M43.2717 20.9248L43.2048 20.5116L43.0245 20.8175C42.7839 20.9517 42.4765 21 42.1425 21C41.5144 21 41 20.7102 41 20.1789C41 19.5456 41.628 19.2022 42.971 19.2022H43.1981V19.1324C43.1981 19.0251 43.1981 18.9284 43.1848 18.8211C43.1648 18.5903 42.9844 18.4293 42.5634 18.4293C42.1358 18.4293 41.9154 18.6225 41.8752 18.9767H41.1403C41.1871 18.3542 41.7683 18 42.5768 18C43.4922 18 43.853 18.3113 43.9131 18.7943C43.9264 18.9123 43.9331 19.0626 43.9331 19.1968V20.2004C43.9331 20.415 43.9465 20.6083 44 20.9248H43.2717ZM42.4098 20.5706C42.8708 20.5706 43.1981 20.3184 43.1981 19.8569V19.5939C42.3362 19.5403 41.775 19.6959 41.775 20.1306C41.775 20.4312 42.0223 20.5706 42.4098 20.5706Z" fill="var(--fill-0, white)"/>
<path id="Vector_7" d="M35.5766 18C36.3987 18 36.9202 18.4347 37 19.0626H36.319C36.2208 18.6279 35.957 18.4293 35.5583 18.4293C35.0859 18.4293 34.7116 18.7567 34.7116 19.4705C34.7116 20.2433 35.0798 20.5706 35.5337 20.5706C35.9202 20.5706 36.1963 20.3668 36.2944 19.9803H36.9815C36.8282 20.6619 36.2637 21 35.497 21C34.6442 21 34 20.5277 34 19.5134C34 18.542 34.7239 18 35.5766 18Z" fill="var(--fill-0, white)"/>
<path id="Vector_8" d="M115.621 4C117.69 4 118.703 5.25349 118.892 6.9248H117.351C117.243 5.82452 116.622 5.16992 115.54 5.16992C114.662 5.16992 113.973 5.58775 113.973 6.49305C113.973 7.4262 114.527 7.85795 115.973 8.20617C118.027 8.69361 119 9.5989 119 11.2006C119 12.9416 117.5 14 115.689 14C113.554 14 112.189 12.9555 112 11.0195H113.541C113.784 12.2034 114.594 12.8301 115.689 12.8301C116.662 12.8301 117.433 12.287 117.433 11.4095C117.433 10.4067 116.865 9.89139 115.352 9.52923C113.581 9.09748 112.405 8.41509 112.405 6.74374C112.405 5.04457 113.878 4 115.621 4Z" fill="var(--fill-0, white)"/>
<path id="Vector_9" d="M111 4V10.0085C111 10.3636 111 10.6478 110.971 11.017C110.823 12.6505 109.654 14 106.992 14C104.331 14 103.162 12.6505 103.029 11.017C103 10.6478 103 10.3636 103 10.0085V4H104.612V10.037C104.612 10.3353 104.612 10.6051 104.641 10.8324C104.744 12.0114 105.528 12.8068 106.992 12.8068C108.472 12.8068 109.256 12.0114 109.359 10.8324C109.388 10.6051 109.388 10.3353 109.388 10.037V4H111Z" fill="var(--fill-0, white)"/>
<path id="Vector_10" d="M100.157 14L97.4496 9.95648L94.8583 14H93L96.557 8.95651L93.2597 4H95.0743L97.5219 7.91306L100.07 4H101.885L98.4287 8.91303L102 14H100.157Z" fill="var(--fill-0, white)"/>
<path id="Vector_11" d="M92 12.7246V14H85V4H91.8527V5.26087H86.6138V8.36233H91.4424V9.62318H86.6138V12.7246H92Z" fill="var(--fill-0, white)"/>
<path id="Vector_12" d="M83 14H80.7826L76.4877 5.75362C76.5299 6.89855 76.5439 8.18841 76.5439 9.21739V14H75V4H77.1755L81.5123 12.3043C81.4844 11.1739 81.4705 9.84058 81.4705 8.8116V4H82.9861L83 14Z" fill="var(--fill-0, white)"/>
<path id="Vector_13" d="M68.2329 10.6956H64.7385L63.6688 14H62L65.5372 4H67.5626L71 14H69.3026L68.2329 10.6956ZM65.1521 9.43479H67.8193L66.5214 5.31884L65.1521 9.43479Z" fill="var(--fill-0, white)"/>
<path id="Vector_14" d="M59.4627 14H57.4374L54 4H55.6973L58.4786 12.7825L61.3312 4H63L59.4627 14Z" fill="var(--fill-0, white)"/>
<path id="Vector_15" d="M48.5068 4C51.3624 4 53 6.01951 53 9C53 11.9666 51.3624 14 48.5068 14C45.6376 14 44 11.9666 44 9C44 6.01951 45.6376 4 48.5068 4ZM48.5068 12.8301C50.3203 12.8301 51.403 11.3816 51.403 9C51.403 6.60447 50.3203 5.16992 48.5068 5.16992C46.6797 5.16992 45.597 6.60447 45.597 9C45.597 11.3816 46.6797 12.8301 48.5068 12.8301Z" fill="var(--fill-0, white)"/>
<path id="Vector_16" d="M42 14H39.7825L35.4878 5.75362C35.5299 6.89855 35.5439 8.18841 35.5439 9.21739V14H34V4H36.1755L40.5123 12.3043C40.4842 11.1739 40.4702 9.84058 40.4702 8.8116V4H41.986L42 14Z" fill="var(--fill-0, white)"/>
<path id="Vector_17" d="M24.1191 15.7156L24.1217 15.7137C22.5313 14.2626 22.5339 11.7563 24.1001 10.3052L24.0988 10.3033C25.2681 9.21676 25.9993 7.67065 25.9993 5.95528C25.9993 2.66647 23.313 0 19.9997 0C16.6863 0 14 2.66647 14 5.95528C14 7.6752 14.7346 9.22456 15.9098 10.3117L15.9092 10.3124C17.4622 11.7608 17.4669 14.2529 15.8908 15.7026L15.8922 15.7045C14.728 16.791 14.0007 18.3333 14.0007 20.0447C14.0007 23.3335 16.687 26 20.0004 26C23.3137 26 26 23.3335 26 20.0447C26 18.3391 25.2779 16.8015 24.1204 15.7156H24.1191Z" fill="var(--fill-0, white)"/>
<path id="Vector_18" d="M7.37795 11.8382C10.6023 11.0772 12.5992 7.84642 11.8382 4.62205C11.0772 1.39768 7.84642 -0.599256 4.62205 0.161764C1.39768 0.922783 -0.599256 4.15358 0.161764 7.37795C0.922783 10.6023 4.15358 12.5992 7.37795 11.8382Z" fill="var(--fill-0, white)"/>
</g>
</svg>
